#!OML:ASF Y:\EmotionMaleHayes\Project 1\Capture day 1\Session 1\Male1.ASF
:FULLY-SPECIFIED
:DEGREES
1585
root 26.4064 16.7859 16.6506 162.854 -74.7671 -167.292
lowerback 8.06874 2.47635 6.15171
upperback 1.12556 3.79927 0.463863
thorax -2.98001 1.80563 -3.35314
lowerneck -17.8174 -4.10734 -0.367022
upperneck 22.0832 -6.52165 2.46909
head 10.0802 -2.84086 0.00949167
rclavicle -1.82274e-014 8.24956e-015
rhumerus -24.9506 9.20501 -83.4241
rradius 44.518
rwrist -3.28789
rhand -8.44018 -32.4985
rfingers 7.12502
rthumb 17.4853 -61.7321
lclavicle -1.82274e-014 8.24956e-015
lhumerus -44.8489 8.52824 73.2562
lradius 23.5689
lwrist -11.2675
lhand -13.231 -21.2709
lfingers 7.12502
lthumb 12.8705 8.31222
rfemur 16.4196 -4.73031 28.6585
rtibia 6.77802
rfoot -19.9589 6.7506
rtoes 29.3242
lfemur -16.6677 1.2158 -4.16598
ltibia 30.6385
lfoot -10.4848 2.12439
ltoes -16.0009
1586
root 26.312 16.7756 16.6492 162.023 -74.0503 -166.347
lowerback 8.19238 2.49722 6.53863
upperback 1.09915 3.87152 0.558391
thorax -3.04998 1.83304 -3.4847
lowerneck -18.4567 -4.02694 -0.00958794
upperneck 22.325 -6.43198 2.11569
head 10.2595 -2.79553 -0.177097
rclavicle -2.00117e-014 -6.13437e-015
rhumerus -24.4663 9.42933 -83.4353
rradius 44.6524
rwrist -3.13646
rhand -8.62715 -31.9905
rfingers 7.12502
rthumb 17.3053 -61.2401
lclavicle -2.00117e-014 -6.13437e-015
lhumerus -45.1616 8.36438 73.4156
lradius 23.7755
lwrist -10.9701
lhand -13.1373 -21.4227
lfingers 7.12502
lthumb 12.9609 8.15476
rfemur 16.6751 -4.41986 29.0845
rtibia 6.82644
rfoot -20.0752 6.9982
rtoes 29.1142
lfemur -16.9485 0.650313 -3.47447
ltibia 28.8059
lfoot -9.80238 1.78607
ltoes -16.4393
1587
root 26.2184 16.7619 16.6472 162.07 -73.4772 -166.301
lowerback 8.25612 2.53624 6.72925
upperback 1.05868 3.94598 0.521663
thorax -3.10434 1.86481 -3.64073
lowerneck -18.4044 -4.06416 0.347388
upperneck 22.4784 -6.46353 1.58387
head 10.2712 -2.84394 -0.427345
rclavicle 1.43606e-014 1.70706e-014
rhumerus -23.759 9.51214 -83.4801
rradius 44.4421
rwrist -3.15608
rhand -8.50349 -32.0932
rfingers 7.12502
rthumb 17.4243 -61.3323
lclavicle 1.43606e-014 1.70706e-014
lhumerus -45.3147 8.30151 73.4161
lradius 23.7342
lwrist -10.813
lhand -13.0147 -21.7137
lfingers 7.12502
lthumb 13.0791 7.85625
rfemur 16.9857 -4.29973 29.0929
rtibia 6.79423
rfoot -20.0964 7.46308
rtoes 29.007
lfemur -17.3276 0.0697743 -3.107
ltibia 27.1419
lfoot -9.21004 1.39802
ltoes -16.9474
1588
root 26.1226 16.7474 16.6427 162.012 -72.8516 -166.129
lowerback 8.23314 2.58779 6.86904
upperback 1.00587 4.02926 0.577424
thorax -3.132 1.90222 -3.66854
lowerneck -18.1546 -4.1228 0.13591
upperneck 22.3108 -6.52863 1.79121
head 10.18 -2.87411 -0.321037
rclavicle 1.64696e-015 1.91082e-014
rhumerus -23.6396 9.77776 -83.4276
rradius 44.9044
rwrist -3.30967
rhand -8.28081 -32.4462
rfingers 7.12502
rthumb 17.6386 -61.6661
lclavicle 1.64696e-015 1.91082e-014
lhumerus -45.5978 8.56521 73.2936
lradius 23.7167
lwrist -10.9918
lhand -12.6422 -21.7808
lfingers 7.12502
lthumb 13.4381 7.76574
rfemur 17.2409 -4.10393 29.2094
rtibia 6.86162
rfoot -20.2801 7.74798
rtoes 28.3496
lfemur -17.604 -0.57464 -2.63591
ltibia 25.3295
lfoot -8.5936 1.12891
ltoes -17.293
1589
root 26.0236 16.7362 16.64 161.734 -72.1379 -165.675
lowerback 8.18008 2.6492 7.17599
upperback 0.882916 4.14218 0.619047
thorax -3.19987 1.94933 -3.80714
lowerneck -17.4767 -4.0198 -0.176639
upperneck 21.9273 -6.40795 2.3066
head 9.94585 -2.80246 -0.0530124
rclavicle -3.17489e-014 -6.01324e-015
rhumerus -23.5942 9.91353 -83.4865
rradius 45.1946
rwrist -3.40611
rhand -8.4166 -32.4134
rfingers 7.12502
rthumb 17.508 -61.645
lclavicle -3.17489e-014 -6.01324e-015
lhumerus -45.9877 8.70453 73.1346
lradius 23.693
lwrist -11.4088
lhand -12.4562 -22.1741
lfingers 7.12502
lthumb 13.6173 7.36051
rfemur 17.4058 -3.89684 29.4334
rtibia 7.01545
rfoot -20.5571 8.06179
rtoes 27.6079
lfemur -17.8227 -1.12877 -2.0039
ltibia 23.3558
lfoot -6.34066 1.03959
ltoes -10.4183
1590
root 25.9208 16.7249 16.6389 161.837 -71.4782 -165.652
lowerback 8.02902 2.67204 7.2568
upperback 1.11873 4.14984 0.659306
thorax -2.865 1.96886 -3.79247
lowerneck -18.7495 -4.04213 0.133731
upperneck 22.775 -6.46456 1.84847
head 10.4625 -2.82273 -0.313025
rclavicle -2.03677e-014 -1.76421e-014
rhumerus -22.6381 10.0635 -83.4122
rradius 45.1641
rwrist -3.35105
rhand -8.47439 -31.7516
rfingers 7.12502
rthumb 17.4523 -60.9881
lclavicle -2.03677e-014 -1.76421e-014
lhumerus -45.6894 9.20407 73.0464
lradius 23.379
lwrist -12.0855
lhand -12.7753 -23.1522
lfingers 7.12502
lthumb 13.3098 6.40271
rfemur 17.6128 -3.63391 29.492
rtibia 7.16622
rfoot -20.8285 8.43994
rtoes 27.2479
lfemur -17.9983 -1.62238 -1.57227
ltibia 21.4817
lfoot -7.66545 0.586867
ltoes -17.5118
1591
root 25.8154 16.708 16.6355 162.033 -70.8422 -165.78
lowerback 7.83435 2.70558 7.32432
upperback 1.28044 4.17159 0.681599
thorax -2.58157 1.99271 -3.79027
lowerneck -19.6781 -3.98607 0.585215
upperneck 23.7355 -6.33602 0.909138
head 10.9372 -2.8142 -0.740315
rclavicle 3.0793e-014 -1.60519e-014
rhumerus -21.9628 10.2984 -83.3472
rradius 45.2577
rwrist -3.24264
rhand -8.37706 -32.0603
rfingers 7.12502
rthumb 17.546 -61.2886
lclavicle 3.0793e-014 -1.60519e-014
lhumerus -45.7864 9.34108 73.1239
lradius 23.7111
lwrist -11.6074
lhand -12.1709 -23.3165
lfingers 7.12502
lthumb 13.8923 6.19948
rfemur 17.8594 -3.31283 29.521
rtibia 7.34767
rfoot -21.179 8.69978
rtoes 26.7553
lfemur -18.0919 -2.14725 -1.19298
ltibia 19.6583
lfoot -7.29738 0.270153
ltoes -16.9547
1592
root 25.71 16.6923 16.629 162.324 -70.0999 -165.982
lowerback 7.96081 2.78466 7.261
upperback 1.12202 4.29486 0.764647
thorax -2.8145 2.04208 -3.69313
lowerneck -19.7252 -3.96815 0.871183
upperneck 24.2002 -6.27431 0.314439
head 11.0849 -2.8332 -1.00243
rclavicle 7.47205e-014 1.04859e-014
rhumerus -21.9515 10.7402 -83.3469
rradius 45.5323
rwrist -3.49221
rhand -8.48565 -32.5124
rfingers 7.12502
rthumb 17.4415 -61.75
lclavicle 7.47205e-014 1.04859e-014
lhumerus -46.4899 9.22394 73.2676
lradius 24.2229
lwrist -11.3796
lhand -11.88 -23.4257
lfingers 7.12502
lthumb 14.1726 6.07081
rfemur 18.0869 -2.94183 29.5432
rtibia 7.55174
rfoot -21.4918 8.99119
rtoes 26.1235
lfemur -18.0951 -2.71258 -0.719784
ltibia 17.7539
lfoot -7.23626 0.200853
ltoes -16.5462
1593
root 25.6092 16.6806 16.6223 162.619 -69.3403 -166.148
lowerback 8.09552 2.85979 7.3149
upperback 0.96698 4.42133 0.753644
thorax -3.03243 2.09271 -3.75992
lowerneck -19.5638 -3.95711 0.936022
upperneck 24.3213 -6.28848 0.293348
head 11.0961 -2.8404 -1.02183
rclavicle -3.25028e-014 -2.87244e-014
rhumerus -21.8509 10.9049 -83.4739
rradius 45.6439
rwrist -3.68124
rhand -8.49652 -32.3979
rfingers 7.12502
rthumb 17.431 -61.6364
lclavicle -3.25028e-014 -2.87244e-014
lhumerus -46.9771 8.78524 73.5286
lradius 24.6645
lwrist -10.8717
lhand -11.6619 -23.0551
lfingers 7.12502
lthumb 14.3828 6.42658
rfemur 18.2426 -2.41994 29.6594
rtibia 7.78064
rfoot -21.7387 9.21692
rtoes 25.9138
lfemur -18.1407 -3.29737 -0.190368
ltibia 15.9065
lfoot -7.43595 0.4804
ltoes -15.7268
1594
root 25.5122 16.6657 16.6167 162.468 -68.6885 -165.845
lowerback 8.07115 2.84436 7.49485
upperback 1.03437 4.40854 0.792971
thorax -2.93918 2.08832 -3.81322
lowerneck -19.7737 -3.9141 0.970541
upperneck 24.2477 -6.2652 0.409289
head 11.1129 -2.80848 -0.98592
rclavicle -2.49475e-014 -2.28602e-015
rhumerus -21.276 10.9793 -83.5201
rradius 45.5937
rwrist -3.57221
rhand -8.37253 -32.2245
rfingers 7.12502
rthumb 17.5504 -61.4524
lclavicle -2.49475e-014 -2.28602e-015
lhumerus -46.9823 8.56078 73.8549
lradius 24.8274
lwrist -10.316
lhand -11.6318 -22.8257
lfingers 7.12502
lthumb 14.4118 6.65395
rfemur 18.3943 -1.89991 30.0048
rtibia 7.96416
rfoot -21.9925 9.2459
rtoes 25.9813
lfemur -18.2701 -3.96407 0.466448
ltibia 14.1138
lfoot -6.67744 0.918031
ltoes -16.5249
1595
root 25.3907 16.6435 16.6134 162.202 -68.1028 -165.434
lowerback 7.72832 2.71863 7.73792
upperback 1.29718 4.21091 0.893044
thorax -2.486 2.00978 -3.79556
lowerneck -20.0014 -3.70903 0.77419
upperneck 23.9285 -5.97917 0.749704
head 11.0586 -2.64988 -0.786522
rclavicle -1.52257e-014 -1.51076e-014
rhumerus -20.4825 11.4597 -83.5259
rradius 45.605
rwrist -3.5224
rhand -8.38189 -32.2283
rfingers 7.12502
rthumb 17.5414 -61.4569
lclavicle -1.52257e-014 -1.51076e-014
lhumerus -46.7123 8.99857 73.9889
lradius 24.7062
lwrist -10.2675
lhand -11.7821 -22.7609
lfingers 7.12502
lthumb 14.267 6.72904
rfemur 18.7803 -1.85182 30.1067
rtibia 7.97797
rfoot -22.1411 9.79205
rtoes 26.1172
lfemur -18.1926 -4.69669 1.00327
ltibia 12.2147
lfoot -6.94767 1.3806
ltoes -16.4668
1596
root 25.2787 16.6249 16.607 162.254 -67.3781 -165.425
lowerback 7.85454 2.84841 7.87581
upperback 1.08092 4.42225 0.878485
thorax -2.74569 2.09866 -3.92007
lowerneck -18.2051 -3.92358 -0.024572
upperneck 22.1845 -6.36178 2.38806
head 10.1726 -2.74505 -0.0631418
rclavicle 5.68555e-014 -3.37934e-015
rhumerus -20.8565 11.3 -83.6068
rradius 45.8619
rwrist -3.32114
rhand -8.20367 -32.4299
rfingers 7.12502
rthumb 17.7129 -61.6431
lclavicle 5.68555e-014 -3.37934e-015
lhumerus -46.9686 8.88211 73.9025
lradius 24.4646
lwrist -10.5157
lhand -11.9466 -23.1736
lfingers 7.12502
lthumb 14.1085 6.32745
rfemur 19.1293 -1.39527 30.2615
rtibia 8.12478
rfoot -22.3601 10.0615
rtoes 26.3746
lfemur -17.976 -5.09864 1.48917
ltibia 10.447
lfoot -7.07203 1.81639
ltoes -15.0139
1597
root 25.1683 16.6075 16.6013 162.683 -66.7723 -165.71
lowerback 7.75777 2.88957 7.81286
upperback 1.07269 4.46352 0.87471
thorax -2.69978 2.12183 -3.88639
lowerneck -18.6171 -3.91674 0.118576
upperneck 22.6503 -6.41692 2.32024
head 10.4122 -2.75484 -0.1339
rclavicle -2.64259e-014 2.92213e-014
rhumerus -20.6046 11.4143 -83.5903
rradius 45.9187
rwrist -3.13984
rhand -7.83385 -32.5248
rfingers 7.12502
rthumb 18.0687 -61.7055
lclavicle -2.64259e-014 2.92213e-014
lhumerus -46.966 9.17059 73.8162
lradius 24.3753
lwrist -10.7275
lhand -12.1556 -23.576
lfingers 7.12502
lthumb 13.9071 5.93896
rfemur 19.2994 -1.13015 30.1472
rtibia 8.36586
rfoot -22.699 10.4645
rtoes 27.0132
lfemur -17.8598 -5.31997 1.73465
ltibia 8.73555
lfoot -7.10022 2.0984
ltoes -18.0526
1598
root 25.0506 16.5896 16.5982 163.52 -66.1348 -166.405
lowerback 7.46218 2.88559 7.66324
upperback 1.1613 4.41276 0.82558
thorax -2.45586 2.1108 -3.82778
lowerneck -18.5968 -3.84185 0.105406
upperneck 22.5673 -6.31352 2.36341
head 10.3791 -2.70495 -0.100122
rclavicle -1.21228e-014 -2.14687e-014
rhumerus -20.1116 11.7317 -83.6316
rradius 45.8278
rwrist -3.39008
rhand -7.72322 -32.3068
rfingers 7.12502
rthumb 18.1751 -61.4777
lclavicle -1.21228e-014 -2.14687e-014
lhumerus -47.1706 9.09945 74.0603
lradius 24.7094
lwrist -10.3383
lhand -12.477 -23.2866
lfingers 7.12502
lthumb 13.5973 6.24936
rfemur 19.4652 -0.928177 29.7248
rtibia 8.61038
rfoot -22.8333 11.1307
rtoes 27.6243
lfemur -17.8288 -5.45645 1.74337
ltibia 7.38325
lfoot -7.29622 2.62676
ltoes -17.2229
1599
root 24.9362 16.5731 16.5943 164.089 -65.4368 -166.863
lowerback 7.371 2.895 7.59439
upperback 1.13372 4.41372 0.79778
thorax -2.43677 2.11261 -3.81374
lowerneck -18.4005 -3.7851 -0.0256624
upperneck 22.4279 -6.24847 2.59193
head 10.3043 -2.66555 0.0166425
rclavicle 5.12958e-014 4.96962e-016
rhumerus -19.8317 11.8384 -83.7351
rradius 45.6926
rwrist -3.62505
rhand -7.67685 -32.0635
rfingers 7.12502
rthumb 18.2198 -61.2302
lclavicle 5.12958e-014 4.96962e-016
lhumerus -47.5508 8.72188 74.3853
lradius 24.9672
lwrist -9.70392
lhand -12.7239 -23.2204
lfingers 7.12502
lthumb 13.3594 6.33131
rfemur 19.7136 -0.442104 29.5717
rtibia 8.75438
rfoot -22.6937 11.4165
rtoes 27.4335
lfemur -17.895 -5.23171 1.84895
ltibia 6.51976
lfoot -7.14624 2.84052
ltoes -15.7152
